<svg xmlns="http://www.w3.org/2000/svg" viewBox="0 0 46 46"><defs><style>.cls-1{fill:#df42d1;stroke:#df42d1;stroke-width:2px;}.cls-2{fill:#fff;}</style></defs><g id="Layer_2" data-name="Layer 2"><g id="Layer_1-2" data-name="Layer 1"><circle id="Oval" class="cls-1" cx="23" cy="23" r="22"/><path id="Shape" class="cls-2" d="M14.1,19.9l2.5,1.6c1.4.9,2.5,1.6,3.2,2.1a2.19,2.19,0,0,0,.5.3,5.74,5.74,0,0,0,.7.4,2.09,2.09,0,0,1,.6.4c.2.1.5.2.7.3a1.27,1.27,0,0,0,.6.1h0a1.27,1.27,0,0,0,.6-.1c.2-.1.5-.2.7-.3a3.11,3.11,0,0,0,.6-.4,4.35,4.35,0,0,1,.7-.4c.3-.2.4-.3.5-.3.8-.5,2.7-1.7,5.7-3.7a6.73,6.73,0,0,0,1.5-1.4,2.72,2.72,0,0,0,.6-1.7,1.76,1.76,0,0,0-.6-1.3,1.74,1.74,0,0,0-1.4-.5H14a2,2,0,0,0-1.5.6,2.32,2.32,0,0,0,.2,3.1A5.26,5.26,0,0,0,14.1,19.9Zm18.7,1.2c-2.7,1.7-4.7,3-6.1,3.9a9,9,0,0,1-1.1.7,3.34,3.34,0,0,1-1.2.5,3.53,3.53,0,0,1-1.4.3h0a3.93,3.93,0,0,1-1.4-.3c-.5-.2-.9-.4-1.2-.5s-.7-.4-1.1-.7c-1.1-.7-3.1-2.1-6.1-3.9a4,4,0,0,1-1.2-1v9a1.76,1.76,0,0,0,.6,1.3,1.74,1.74,0,0,0,1.4.5H32a2.39,2.39,0,0,0,1.4-.5,1.76,1.76,0,0,0,.6-1.3v-9A5.3,5.3,0,0,1,32.8,21.1Z"/></g></g></svg>