<svg xmlns="http://www.w3.org/2000/svg" viewBox="0 0 46 46"><defs><style>.cls-1{fill:#df42d1;stroke:#df42d1;stroke-width:2px;}.cls-2{fill:#fff;}</style></defs><g id="Layer_2" data-name="Layer 2"><g id="Layer_1-2" data-name="Layer 1"><circle id="Oval" class="cls-1" cx="23" cy="23" r="22"/><path id="Shape" class="cls-2" d="M11,23.3A12.37,12.37,0,0,0,19.2,35a.61.61,0,0,0,.8-.6V32.3c-3.3.7-4-1.6-4-1.6a3.17,3.17,0,0,0-1.3-1.8c-1.1-.8.1-.7.1-.7a2.47,2.47,0,0,1,1.8,1.3,2.51,2.51,0,0,0,3.5,1,2.23,2.23,0,0,1,.8-1.6c-2.7-.3-5.5-1.4-5.5-6.1a5.32,5.32,0,0,1,1.2-3.3,5.1,5.1,0,0,1,.1-3.3s1-.3,3.3,1.3a10.32,10.32,0,0,1,3-.4,10.32,10.32,0,0,1,3,.4c2.3-1.6,3.3-1.3,3.3-1.3a4.52,4.52,0,0,1,.1,3.3,4.79,4.79,0,0,1,1.2,3.3c0,4.7-2.8,5.8-5.5,6.1a3.1,3.1,0,0,1,.8,2.3v3.4a.61.61,0,0,0,.8.6,12.18,12.18,0,0,0,8.2-11.7,12.17,12.17,0,0,0-12-12.3C16.4,11,11,16.5,11,23.3Z"/></g></g></svg>