<svg xmlns="http://www.w3.org/2000/svg" viewBox="0 0 46 46"><defs><style>.cls-1{fill:#df42d1;stroke:#df42d1;stroke-width:2px;}.cls-2{fill:#fff;}</style></defs><g id="Layer_2" data-name="Layer 2"><g id="Layer_1-2" data-name="Layer 1"><circle id="Oval" class="cls-1" cx="23" cy="23" r="22"/><path id="Shape" class="cls-2" d="M13.5,19.4h3.9V33H13.5Zm1.9-1.7h0A2.31,2.31,0,0,1,13,15.3a2.31,2.31,0,0,1,2.4-2.4,2.4,2.4,0,0,1,0,4.8ZM33,33H28.6V26c0-1.8-.7-3.1-2.2-3.1a2.16,2.16,0,0,0-2.1,1.7,3.75,3.75,0,0,0-.1,1.1V33H19.8s.1-12.5,0-13.6h4.4v2.1a4.13,4.13,0,0,1,3.9-2.3c2.8,0,4.9,2,4.9,6.2V33Z"/></g></g></svg>